PathFileType	4	(X/Y/Z)	./resultDataOpenSim/trcMotMarkerGrf/sub09/qtm-15-05.trc
DataRate	CameraRate	NumFrames	NumMarkers	Units	OrigDataRate	OrigDataStartFrame	OrigNumFrames
250.000000	250.000000	13	24	m	250.000000	123	488
Frame#	Time	L.Toe.Tip			R.Toe.Tip			L.Ankle.Lat			R.Ankle.Lat			L.Ankle.Med			R.Ankle.Med			L.Heel			R.Heel			L.Knee.Lat			R.Knee.Lat			L.Knee.Med			R.Knee.Med			L.Thigh.Upper			R.Thigh.Upper			L.ASIS			R.ASIS			V.Sacral			L.Acromium			R.Acromium			C7			L.Elbow			R.Elbow			L.Wrist.Lat			R.Wrist.Lat
		X1	Y1	Z1	X2	Y2	Z2	X3	Y3	Z3	X4	Y4	Z4	X5	Y5	Z5	X6	Y6	Z6	X7	Y7	Z7	X8	Y8	Z8	X9	Y9	Z9	X10	Y10	Z10	X11	Y11	Z11	X12	Y12	Z12	X13	Y13	Z13	X14	Y14	Z14	X15	Y15	Z15	X16	Y16	Z16	X17	Y17	Z17	X18	Y18	Z18	X19	Y19	Z19	X20	Y20	Z20	X21	Y21	Z21	X22	Y22	Z22	X23	Y23	Z23	X24	Y24	Z24

123	0.488	-0.15858668	0.078414109	-0.046014777	-0.59217727	0.037976543	0.065731714	-0.31195699	0.088505434	-0.073465839	-0.73974224	0.056988368	0.097479085	-0.28695376	0.11202345	0.019922187	-0.72719827	0.09483843	0.006678185	-0.36958078	0.040298353	-0.018496082	-0.80799519	0.03696871	0.046986599	-0.34394774	0.50571371	-0.11594658	-0.60025107	0.49718409	0.16288382	-0.33885008	0.50448384	0.0093473989	-0.62289557	0.48974854	0.035114851	-0.52488257	0.88616226	-0.15423908	-0.56329144	0.90027256	0.21633947	-0.45386596	0.97387347	-0.090436632	-0.45520295	0.98056055	0.14998681	-0.62226114	1.0329547	0.020514304	-0.46757798	1.4286248	-0.14646309	-0.47802665	1.4448851	0.18277839	-0.54029397	1.4850255	0.018767268	-0.62957256	1.0989104	-0.2012795	-0.59865948	1.1010178	0.2832262	-0.51853442	0.86220336	-0.24168764	-0.41639136	0.89269472	0.27551771
124	0.492	-0.1397273	0.08144822	-0.045001129	-0.59217627	0.03793804	0.065890517	-0.29339087	0.087935246	-0.073390135	-0.74010567	0.057599113	0.097304266	-0.26923998	0.11226812	0.020127465	-0.7269275	0.094939329	0.0064535318	-0.34990259	0.038380541	-0.018674548	-0.80797242	0.037200751	0.046600777	-0.33750437	0.50418128	-0.11590757	-0.59730567	0.49644398	0.16295741	-0.33278961	0.50274094	0.0096861701	-0.62073343	0.48936568	0.035309587	-0.51843926	0.8845864	-0.15408465	-0.5579129	0.89929356	0.21633999	-0.44734784	0.97237088	-0.09014096	-0.44928105	0.9792678	0.15027989	-0.61649822	1.0317687	0.019305276	-0.4614884	1.4273033	-0.14658548	-0.47205603	1.443547	0.18271239	-0.5342793	1.4836799	0.018635939	-0.62367167	1.0977724	-0.20138927	-0.59194981	1.0994035	0.28344289	-0.51376648	0.86073885	-0.24229847	-0.40876794	0.89193003	0.2754623
125	0.496	-0.12122679	0.084638956	-0.04401701	-0.59217626	0.037919642	0.06608235	-0.27516913	0.087617902	-0.07333907	-0.74016551	0.058082293	0.09705069	-0.25176382	0.11280043	0.02033658	-0.72665088	0.095052021	0.0062285409	-0.33052137	0.036813716	-0.018866538	-0.80795582	0.037461542	0.046225025	-0.33104305	0.50264734	-0.11587231	-0.59430004	0.49563068	0.16295372	-0.32657772	0.50087177	0.010172587	-0.6184629	0.48894268	0.035474522	-0.51191034	0.88295227	-0.1539226	-0.55251346	0.89826101	0.21630872	-0.44081624	0.97080662	-0.089822792	-0.44335916	0.9779315	0.1505737	-0.610386	1.0303249	0.018803617	-0.45537462	1.4259063	-0.14670468	-0.46608757	1.4421457	0.18264523	-0.52827132	1.4823085	0.01849678	-0.61772497	1.0965532	-0.20152433	-0.58523754	1.0977077	0.28363338	-0.50900022	0.85919215	-0.2429387	-0.40114158	0.89109386	0.27542511
126	0.5	-0.10312511	0.087974041	-0.043080635	-0.59216978	0.037918892	0.06629297	-0.25730059	0.087543967	-0.073335243	-0.73989293	0.058243214	0.096737218	-0.23463424	0.11351128	0.020469619	-0.72637158	0.09517559	0.0060176378	-0.31145358	0.035551895	-0.019101583	-0.80793497	0.03774705	0.045838886	-0.32448266	0.5010496	-0.11576563	-0.59128854	0.4947689	0.16289987	-0.32015562	0.49890235	0.010798831	-0.61608365	0.48849476	0.035645858	-0.50524723	0.88126077	-0.15376795	-0.54709335	0.89718231	0.21625089	-0.4342683	0.96918371	-0.089482077	-0.43743842	0.97654473	0.15086497	-0.60403813	1.0286945	0.018749967	-0.44923579	1.4244352	-0.14681371	-0.4601263	1.4406812	0.18257952	-0.5222523	1.4808989	0.018349032	-0.61173072	1.0952534	-0.20168307	-0.57851842	1.0959331	0.2837926	-0.50418047	0.85756878	-0.24357789	-0.39354044	0.89017702	0.27539788
127	0.504	-0.085476127	0.091441206	-0.042187058	-0.59216206	0.037933703	0.066488686	-0.23978913	0.08769577	-0.073378379	-0.73958054	0.058230852	0.096434882	-0.21792994	0.11432597	0.020495076	-0.72608882	0.095307894	0.0058255134	-0.29273123	0.034551119	-0.019397543	-0.80789999	0.038041912	0.045422695	-0.31775394	0.49933172	-0.1155252	-0.58832393	0.4938813	0.16281989	-0.31362741	0.49681978	0.01145736	-0.61352864	0.48804716	0.035877834	-0.49846035	0.87950373	-0.15360618	-0.54164212	0.89605315	0.21617267	-0.42770438	0.96750675	-0.089121594	-0.43150385	0.97509664	0.15115175	-0.59760555	1.0269605	0.018842877	-0.44307276	1.4228918	-0.14692285	-0.45416386	1.4391515	0.18251161	-0.51619604	1.4794218	0.018189524	-0.60568865	1.0938776	-0.20186354	-0.57179059	1.0940872	0.28391912	-0.49924114	0.85588724	-0.24417444	-0.38596894	0.88917089	0.27537573
128	0.508	-0.068307125	0.095042427	-0.041319048	-0.59217626	0.037970587	0.066633894	-0.22264533	0.088052805	-0.073459077	-0.73943775	0.058261207	0.096180747	-0.20166167	0.11522832	0.020462758	-0.72579495	0.095446735	0.0056452356	-0.2743997	0.033780023	-0.019767356	-0.80784793	0.03833174	0.04497913	-0.31087804	0.4975143	-0.11517352	-0.58545773	0.49299008	0.16273593	-0.30714107	0.49460072	0.012041729	-0.61073603	0.48760579	0.036164644	-0.49164494	0.87767133	-0.15340922	-0.53614588	0.89486117	0.21607778	-0.42112814	0.96578264	-0.088749426	-0.42554706	0.97358645	0.15143245	-0.59116485	1.0251673	0.018944142	-0.43688435	1.4212769	-0.14704724	-0.44819535	1.4375558	0.18243887	-0.51009276	1.4778559	0.018015972	-0.59960087	1.0924316	-0.2020644	-0.5650557	1.0921758	0.2840138	-0.49415453	0.85416268	-0.24471086	-0.3784178	0.88807594	0.27536077
129	0.512	-0.051627575	0.098768101	-0.040445694	-0.59223152	0.038028835	0.066715994	-0.20587629	0.088602038	-0.07357058	-0.73942195	0.058383903	0.095964378	-0.18582186	0.11621786	0.020433597	-0.72547706	0.095593002	0.0054635858	-0.25650779	0.03321155	-0.020237421	-0.80778361	0.03862102	0.044529562	-0.30395323	0.49567294	-0.1147996	-0.58274242	0.49211795	0.16266999	-0.30074082	0.49228198	0.012538975	-0.60772629	0.48714898	0.0364234	-0.48489583	0.8757665	-0.15316734	-0.53059867	0.89360306	0.21596633	-0.41453887	0.96401578	-0.088377364	-0.41957523	0.97202515	0.15170582	-0.58472551	1.0233276	0.019022652	-0.43066632	1.4195948	-0.14719491	-0.44222059	1.4358947	0.18236411	-0.50395194	1.4761971	0.017827848	-0.59346749	1.0909172	-0.2022884	-0.55831661	1.0902003	0.28407802	-0.48891653	0.85240127	-0.2451874	-0.3708756	0.88690345	0.27535493
130	0.516	-0.035464552	0.10256475	-0.039544861	-0.59231148	0.038086164	0.066756561	-0.18947204	0.089340043	-0.073718789	-0.73942909	0.058565215	0.095756022	-0.17044115	0.11727186	0.020424767	-0.72512366	0.095753131	0.0052657015	-0.23909861	0.032811514	-0.020835086	-0.80771012	0.038934457	0.044087883	-0.29703592	0.49386304	-0.11445842	-0.58023822	0.4912897	0.16264603	-0.29438299	0.48994949	0.0129964	-0.60459615	0.48663893	0.036592649	-0.47821716	0.87380426	-0.15289478	-0.52499784	0.8922867	0.21583504	-0.40793474	0.96220628	-0.088016079	-0.41359225	0.97042465	0.15196889	-0.57826873	1.0214329	0.019081624	-0.42441465	1.4178531	-0.14736341	-0.43623212	1.4341713	0.18228637	-0.49778621	1.4744598	0.017625122	-0.58728734	1.0893365	-0.20253983	-0.55157394	1.0881603	0.28411038	-0.4835263	0.85060177	-0.24560552	-0.36333537	0.88566689	0.27535793
131	0.52	-0.019856589	0.1063624	-0.03861951	-0.59237211	0.038115714	0.066789248	-0.17343245	0.090248906	-0.073917499	-0.73940721	0.058773536	0.095521669	-0.15557052	0.1183411	0.020424131	-0.72473026	0.095936151	0.005040397	-0.22220393	0.032535039	-0.021568601	-0.80761949	0.039301286	0.043644752	-0.29009806	0.49209241	-0.11414285	-0.57802145	0.49053452	0.16269245	-0.28802453	0.48765804	0.013453344	-0.60146306	0.4860311	0.036678691	-0.47154525	0.87179538	-0.15261378	-0.51934736	0.89091634	0.21568311	-0.40131586	0.96035502	-0.08767145	-0.40759142	0.96878695	0.15221859	-0.57178193	1.0194754	0.019129384	-0.41812736	1.416057	-0.14753986	-0.43022583	1.4323921	0.18220347	-0.49160258	1.472671	0.017410202	-0.58106384	1.0876942	-0.20281587	-0.54482555	1.0860572	0.28410584	-0.47802196	0.84874892	-0.24598217	-0.35579429	0.88437269	0.27536956
132	0.524	-0.0048246815	0.11010808	-0.037673342	-0.59238694	0.038110038	0.066828657	-0.15780956	0.09127399	-0.074168309	-0.73933702	0.058996235	0.095241754	-0.1412333	0.1193694	0.020416194	-0.72429738	0.096149518	0.0047836638	-0.20584923	0.03233656	-0.022428928	-0.80750063	0.039739265	0.043175022	-0.28308183	0.49035286	-0.11382497	-0.57617976	0.48988482	0.16284076	-0.28165978	0.48540568	0.013922371	-0.59834089	0.48530411	0.036711053	-0.46482983	0.86974314	-0.1523365	-0.5136587	0.88948716	0.21551877	-0.39468663	0.95846526	-0.087342655	-0.40157493	0.96710256	0.15245579	-0.56527042	1.0174621	0.019170807	-0.41180314	1.4142041	-0.14770838	-0.42421534	1.4305662	0.18212051	-0.48540451	1.470853	0.017192107	-0.57480747	1.0859926	-0.20310475	-0.5380703	1.0838962	0.28406131	-0.47247872	0.84681929	-0.24635092	-0.34825611	0.88301869	0.27538709
133	0.528	0.0096325609	0.11374843	-0.036692857	-0.59236282	0.038078846	0.066868868	-0.14269685	0.092337496	-0.074443865	-0.73920187	0.059247065	0.09493192	-0.12741688	0.12032093	0.020381842	-0.72382293	0.096396682	0.0044931599	-0.19006004	0.032180002	-0.023398657	-0.80735379	0.040243587	0.042646182	-0.27593727	0.48864902	-0.11348399	-0.57476661	0.48936427	0.16311348	-0.27530312	0.48317187	0.014400226	-0.59505123	0.48450058	0.036711942	-0.45806173	0.86764938	-0.15206777	-0.50793878	0.88799222	0.21535801	-0.38806048	0.9565395	-0.087027545	-0.39557479	0.9653566	0.15268682	-0.55874891	1.015406	0.019201935	-0.40544308	1.4122874	-0.14786393	-0.41821944	1.428707	0.18204793	-0.4791956	1.4690105	0.016987194	-0.56853185	1.0842315	-0.20339052	-0.53131029	1.0816841	0.28397737	-0.46693906	0.84480985	-0.24673224	-0.34073582	0.88160176	0.27540476
134	0.532	0.023517632	0.11720902	-0.035668401	-0.59231605	0.038033753	0.066899874	-0.1281721	0.093370225	-0.074701029	-0.73898506	0.059550897	0.094629263	-0.11410369	0.12118863	0.020294163	-0.72329968	0.096674031	0.0041632276	-0.17484783	0.032033243	-0.024448283	-0.80718959	0.040788117	0.042025288	-0.26864993	0.48699687	-0.11312587	-0.57369951	0.48896006	0.16349677	-0.26895729	0.48094674	0.014870877	-0.59136944	0.48370646	0.036700955	-0.45124716	0.86551268	-0.15181811	-0.50218729	0.88642766	0.21521377	-0.38145424	0.95457814	-0.086730146	-0.38963537	0.96354022	0.15292011	-0.55223106	1.0133186	0.019214705	-0.39905153	1.4103072	-0.14801781	-0.41224419	1.4268282	0.18199452	-0.47298266	1.467134	0.01681588	-0.56224283	1.0824129	-0.20366584	-0.52455198	1.0794278	0.2838556	-0.46138917	0.84275016	-0.24712375	-0.33325015	0.88012448	0.2754195
135	0.536	0.03681692	0.12040444	-0.034625417	-0.59225557	0.037981985	0.066914481	-0.11426575	0.094321394	-0.074914434	-0.73869944	0.059908562	0.09433864	-0.10129928	0.12197571	0.020144702	-0.72272358	0.096970717	0.0037913271	-0.16019941	0.031856129	-0.025521502	-0.80701803	0.041348575	0.041303976	-0.26125176	0.48541469	-0.11278837	-0.57267004	0.48859711	0.16391581	-0.26259878	0.47873524	0.015298967	-0.5872598	0.48297617	0.03670779	-0.44438348	0.86333003	-0.15159912	-0.49639969	0.88479593	0.21508588	-0.37487826	0.95257942	-0.086457551	-0.38375767	0.96166281	0.15316062	-0.54572492	1.011207	0.019205886	-0.3926312	1.4082747	-0.14818516	-0.40627456	1.4249301	0.18195552	-0.46677396	1.4652149	0.016687873	-0.55591737	1.0805406	-0.20396104	-0.51780901	1.0771342	0.28369916	-0.45580448	0.84067273	-0.24752035	-0.32580375	0.8785923	0.27543524
